HIERARCHY
ROOT Hips
{
  OFFSET 109.771 95.5254 57.2159
  CHANNELS 6 Xposition Yposition Zposition Zrotation Xrotation Yrotation
  JOINT RightUpLeg
  {
    OFFSET -8.9458 -8.66707 0.101652
    CHANNELS 3 Zrotation Xrotation Yrotation
    JOINT RightLeg
    {
      OFFSET 0 -44.4227 1.3727
      CHANNELS 3 Zrotation Xrotation Yrotation
      JOINT RightFoot
      {
        OFFSET 0.253549 -42.0924 -1.46059
        CHANNELS 3 Zrotation Xrotation Yrotation
        JOINT RightToes
        {
          OFFSET 0.04 -4.41509 8.4991
          CHANNELS 3 Zrotation Xrotation Yrotation
          End Site
          {
            OFFSET -0.08 -0.137448 9.77979
          }
        }
      }
    }
  }
  JOINT Spine
  {
    OFFSET 0 11.8905 0
    CHANNELS 3 Zrotation Xrotation Yrotation
    JOINT Spine1
    {
      OFFSET 0 25.6574 0.127663
      CHANNELS 3 Zrotation Xrotation Yrotation
      JOINT HEad
      {
        OFFSET 0 8.73416 0.011341
        CHANNELS 3 Zrotation Xrotation Yrotation
        End Site
        {
          OFFSET -0.29 12.7742 2.51395
        }
      }
      JOINT LeftShoulder1
      {
        OFFSET 8.99 -0.362252 -0.22
        CHANNELS 3 Zrotation Xrotation Yrotation
        JOINT LeftArm
        {
          OFFSET 10.2827 -0.00338 0.322123
          CHANNELS 3 Zrotation Xrotation Yrotation
          JOINT LeftForeArm
          {
            OFFSET 32.7669 0.099144 -1.42434
            CHANNELS 3 Zrotation Xrotation Yrotation
            JOINT LeftHand
            {
              OFFSET 27.5643 0.085362 1.02216
              CHANNELS 3 Zrotation Xrotation Yrotation
              End Site
              {
                OFFSET 16.7443 -0.6 1.50291
              }
            }
          }
        }
      }
      JOINT RightShoulder
      {
        OFFSET -8.99 -0.362252 -0.22
        CHANNELS 3 Zrotation Xrotation Yrotation
        JOINT RightArm
        {
          OFFSET -10.2827 -0.00338 0.322123
          CHANNELS 3 Zrotation Xrotation Yrotation
          JOINT RightForeArm
          {
            OFFSET -32.8971 0.099144 -1.42434
            CHANNELS 3 Zrotation Xrotation Yrotation
            JOINT RightHand
            {
              OFFSET -27.4921 0.085362 1.02216
              CHANNELS 3 Zrotation Xrotation Yrotation
              End Site
              {
                OFFSET -16.6312 -0.6 1.50291
              }
            }
          }
        }
      }
    }
  }
  JOINT LeftUpLeg
  {
    OFFSET 8.9458 -8.66707 0.101652
    CHANNELS 3 Zrotation Xrotation Yrotation
    JOINT LeftLeg
    {
      OFFSET 0 -44.4227 1.3727
      CHANNELS 3 Zrotation Xrotation Yrotation
      JOINT LeftFoot
      {
        OFFSET -0.253549 -42.0924 -1.46059
        CHANNELS 3 Zrotation Xrotation Yrotation
        JOINT LeftToes
        {
          OFFSET -0.04 -4.41509 8.4991
          CHANNELS 3 Zrotation Xrotation Yrotation
          End Site
          {
            OFFSET 0.08 -0.047448 9.77979
          }
        }
      }
    }
  }
}
MOTION
Frames:	11
Frame Time:	0.0166667
109.771 95.5254 57.2159 -1.39713 -3.31864 147.597 -22.0567 -23.9565 -11.7496 176.151 88.5398 -168.145 17.3024 -3.41243 -0.792261 -3.09538 -5.96276 -2.84572 -4.47739 2.60449 4.77027 -4.39702 4.69273 9.42962 -4.10476 -0.703345 2.00688 7.95139e-016 0 -0 -64.6048 -29.0973 -21.5957 2.109 31.8658 -125.238 35.4913 2.5215 -19.0409 16.0667 4.03358 18.949 66.7837 -25.7084 34.0572 -18.6863 30.2167 151.718 -10.5786 14.3055 -53.369 16.7008 -22.7218 3.8733 5.53413 38.2604 -16.8102 -6.52453 2.50381 0.548104 17.7097 -21.7222 3.88286 
111.304 96.4552 57.2047 -0.134624 -3.10125 147.041 -24.0411 -22.9277 -9.54637 44.0483 83.9258 -38.1803 13.6273 -2.25292 -0.783919 -5.79641 -10.3708 -3.59703 -3.50498 2.48308 4.34103 -3.62992 4.62678 8.71525 -4.32775 0.845401 3.46085 -0 0 3.18055e-015 -63.0939 -27.0398 -18.0329 1.83933 30.7118 -125.663 35.014 2.26853 -20.1587 16.6439 4.03028 18.3776 65.0495 -22.4439 32.0893 -18.7829 27.768 151.234 -9.3606 13.865 -54.5242 18.0533 -21.7235 2.64827 5.43948 38.3211 -15.5782 -7.79284 6.31632 0.895492 17.2581 -21.1409 3.94665 
112.832 97.1856 57.3013 0.971623 -2.84306 146.602 -25.8855 -21.5879 -7.07165 37.7898 75.8164 -34.0244 10.3657 -1.54221 -0.687658 -7.98218 -13.7834 -4.54198 -2.87558 2.4846 4.02593 -2.97235 4.72075 8.12045 -4.29294 2.10252 4.45701 -0 -1.59028e-015 -0 -62.1263 -24.8032 -15.0028 1.54156 29.704 -125.801 34.518 2.02856 -21.2778 17.2118 3.98307 17.6251 63.6399 -19.5272 30.0542 -18.8176 25.0416 151.049 -7.94638 13.3147 -55.8202 19.1379 -21.5183 1.78871 6.06345 39.3291 -15.0238 -9.35341 10.3432 1.38842 16.7874 -21.1051 2.58372 
114.353 97.6595 57.4785 1.964 -2.53484 146.245 -27.2437 -20.11 -4.66657 33.6831 67.5666 -31.7745 8.21967 -2.12311 -0.5343 -8.52267 -14.5806 -5.12148 -2.5362 2.56796 3.84416 -2.41074 4.92764 7.72452 -4.05978 3.19715 4.9437 -7.95139e-016 -1.59028e-015 6.36111e-015 -61.6546 -22.4685 -12.5772 1.35728 28.7383 -125.719 34.0364 1.86886 -22.161 17.7054 3.89207 16.7576 62.6491 -17.2003 28.0045 -18.6869 22.4352 151.079 -6.52675 12.7175 -57.0074 19.8485 -22.0123 1.16369 7.61179 41.3688 -15.3961 -11.1327 13.8533 1.98697 16.3165 -21.6122 -0.127087 
115.861 97.8436 57.7213 2.93562 -2.17997 145.935 -27.7764 -18.6124 -2.63774 28.6485 59.8251 -27.9481 7.48957 -3.69794 -0.406098 -7.38234 -12.837 -5.23236 -2.34825 2.69481 3.76548 -1.88369 5.20486 7.51104 -3.72386 4.23491 5.01515 0 0 -0 -61.5621 -20.1124 -10.6345 1.51252 27.6914 -125.621 33.7064 1.84316 -22.5131 18.0663 3.77951 15.9251 62.0862 -15.6086 26.027 -18.3194 20.3499 151.167 -5.42796 12.2225 -57.7584 20.16 -22.9992 0.563985 10.238 44.3282 -17.1283 -13.0356 16.1358 2.59152 16.0513 -22.6745 -3.43165 
117.363 97.7088 58.0397 3.9784 -1.78948 145.638 -27.2788 -17.1115 -1.12081 22.299 52.7072 -21.8865 7.99035 -4.81679 -0.352646 -5.81681 -10.4365 -5.33719 -2.18094 2.84666 3.72916 -1.32323 5.53313 7.37928 -3.36963 5.21923 4.86411 1.59028e-015 1.59028e-015 -0 -61.736 -17.7991 -8.97384 2.18953 26.4765 -125.71 33.6897 1.96835 -22.128 18.2731 3.68129 15.2987 61.8741 -14.8591 24.2555 -17.6959 19.1682 151.198 -4.98849 12.0085 -57.8186 20.1583 -24.246 -0.188956 13.9344 47.9006 -20.5789 -14.96 16.7868 3.07566 16.2197 -24.2587 -6.34583 
118.887 97.2205 58.4675 5.12639 -1.36617 145.366 -25.7769 -15.5315 -0.073851 15.071 45.9526 -14.0117 9.22558 -3.61057 -0.473145 -5.83219 -10.4677 -5.75973 -1.99656 3.02841 3.66555 -0.712595 5.92372 7.18897 -3.02985 6.02144 4.68351 -0 -3.18055e-015 -0 -62.0861 -15.5506 -7.45412 3.33697 25.0959 -126.031 34.0239 2.2221 -21.0539 18.3734 3.6285 14.9741 61.8386 -14.9752 22.8796 -16.8457 19.1386 151.157 -5.37825 12.168 -57.1529 20.0037 -25.5831 -1.16873 18.4674 51.6468 -25.5989 -16.7065 15.8439 3.32073 16.8417 -26.219 -8.41405 
120.492 96.3402 59.0467 6.32987 -0.867435 145.197 -23.5889 -13.7707 0.643057 7.93148 39.515 -5.45935 10.908 0.863563 -0.929838 -9.18777 -15.4771 -6.56604 -1.89735 3.26481 3.51656 -0.112843 6.42044 6.81099 -2.68161 6.45114 4.58829 7.95139e-016 0 3.18055e-015 -62.558 -13.3666 -6.06864 4.64557 23.6806 -126.468 34.5518 2.55661 -19.6006 18.4672 3.62949 14.9108 61.8028 -15.729 22.1188 -15.8782 20.1189 151.071 -6.42793 12.6092 -56.0039 19.8112 -26.9242 -2.33697 23.4264 55.1165 -31.47 -17.9366 13.604 3.2394 17.6605 -28.1328 -9.64022 
122.228 95.0707 59.786 7.5212 -0.22559 145.252 -21.2269 -11.8371 1.16801 1.8664 34.1216 2.33417 13.2651 7.45408 -1.82396 -16.2464 -25.2579 -8.15563 -1.96353 3.59057 3.23256 0.394377 7.08531 6.1477 -2.29915 6.37457 4.63101 0 0 -3.18055e-015 -63.1192 -11.3397 -4.89197 5.70306 22.5026 -126.841 35.0155 2.89084 -18.23 18.6478 3.67308 14.9856 61.7309 -16.6897 22.1434 -14.9936 21.5881 150.976 -7.67136 13.1125 -54.8201 19.5905 -28.2072 -3.59665 28.2792 57.9073 -37.2166 -18.3272 10.4004 2.82029 18.2671 -29.2338 -9.92746 
124.06 93.5158 60.6298 8.71732 0.563451 145.625 -19.1005 -10.0009 1.53662 -2.56911 31.124 8.15878 16.0859 13.1636 -2.9624 -25.3791 -36.1635 -11.014 -1.96863 4.04448 2.77518 0.796616 7.97216 5.16848 -1.89754 5.79038 4.82471 7.95139e-016 -1.59028e-015 -3.18055e-015 -63.7198 -9.73492 -4.00233 6.15089 21.9299 -126.991 35.2116 3.11952 -17.3889 18.9775 3.74646 15.0902 61.6961 -17.4915 22.9666 -14.4091 22.9737 150.928 -8.61115 13.4849 -54.0732 19.3139 -29.3243 -4.8265 32.3743 59.6433 -41.881 -17.8431 6.62072 2.17788 18.2859 -28.8096 -9.13735 
125.834 91.891 61.4619 9.93191 1.46939 146.273 -17.457 -8.52716 1.62249 -5.20167 31.1573 11.6401 17.7792 15.5078 -3.62348 -33.9196 -44.2682 -14.908 -1.68502 4.62946 2.17375 1.13593 9.08784 3.97535 -1.51213 4.83234 5.13 7.95139e-016 1.59028e-015 -0 -64.3323 -8.87656 -3.47235 5.84076 22.2167 -126.827 35.0835 3.18951 -17.2549 19.4873 3.83805 15.1468 61.7494 -18.0109 24.3938 -14.2462 23.9664 150.959 -8.98782 13.6482 -53.9855 18.8679 -30.0615 -5.8509 34.9829 59.961 -44.5889 -16.8217 2.92607 1.52921 17.6281 -26.9409 -7.53954 
